# xmcd
#
# Track frame offsets:
#	150
#	16644
#	35523
#	50848
#	68443
#	85179
#	102024
#	119805
#	135204
#	152939
#	169002
#
# Disc length: 2548 seconds
# Revision: 6
# Processed by: cddbd v1.5.2PL0 Copyright (c) Steve Scherf et al.
# Submitted via: dBpowerAMP V12.0
#
DISCID=8409f20b
DTITLE=Court Yard Hounds - Amelita
DYEAR=2013
DGENRE=Country
TTITLE0=Sunshine
TTITLE1=Amelita
TTITLE2=The World Smiles
TTITLE3=Aimless Upward
TTITLE4=A Guy Like You
TTITLE5=Rock All Night
TTITLE6=Phoebe
TTITLE7=Divided
TTITLE8=Gets You Down
TTITLE9=Watch Your Step
TTITLE10=The Road You Take
EXTD=
EXTT0=
EXTT1=
EXTT2=
EXTT3=
EXTT4=
EXTT5=
EXTT6=
EXTT7=
EXTT8=
EXTT9=
EXTT10=
PLAYORDER=
